<svg xmlns="http://www.w3.org/2000/svg" xmlns:xlink="http://www.w3.org/1999/xlink" viewBox="0,0,256,256" width="192px" height="192px" fill-rule="nonzero"><g fill="#ffffff" fill-rule="nonzero" stroke="none" stroke-width="1" stroke-linecap="butt" stroke-linejoin="miter" stroke-miterlimit="10" stroke-dasharray="" stroke-dashoffset="0" font-family="none" font-weight="none" font-size="none" text-anchor="none" style="mix-blend-mode: normal"><g transform="scale(10.66667,10.66667)"><path d="M22,6.2v11.57c0,0.77 -0.44,1.47 -1.13,1.8c-0.92,0.44 -2.17,1.05 -2.92,1.41c0.03,-0.16 0.05,-0.34 0.05,-0.51v-16.94c0,-0.22 -0.03,-0.4 -0.06,-0.52c0.81,0.38 2.03,0.97 2.92,1.39c0.7,0.33 1.14,1.03 1.14,1.8zM3.91,13.34c0.76,0.7 1.62,1.48 2.51,2.28c-0.54,0.41 -1.02,0.78 -1.41,1.07c-0.59,0.44 -1.4,0.43 -1.98,-0.04c-0.39,-0.32 -0.59,-0.79 -0.59,-1.25c0,-0.44 0.17,-0.87 0.52,-1.19c0.28,-0.26 0.6,-0.55 0.95,-0.87zM16,3.53v4.81c0,0 -1.36,1.03 -3.16,2.4c-1.08,-0.81 -2.22,-1.68 -3.29,-2.5c2.34,-2.13 4.54,-4.14 5.58,-5.1c0.23,-0.22 0.56,-0.16 0.74,0.04c0.05,0.06 0.09,0.13 0.11,0.22c0.01,0.04 0.02,0.08 0.02,0.13zM16,20.47v-4.81c0,0 -8.106,-6.162 -10.989,-8.345c-0.59,-0.447 -1.404,-0.43 -1.979,0.036v0c-0.766,0.621 -0.798,1.778 -0.067,2.44c3.01,2.728 10.034,9.098 12.166,11.069c0.331,0.307 0.869,0.07 0.869,-0.39z"></path></g></g></svg>